# Blender 4.5.4 LTS
# www.blender.org
mtllib fugal_life_flow.mtl
o Diamond
v -0.500000 -1.309017 0.809017
v -0.500000 1.309017 0.809017
v -0.500000 -1.309017 -0.809017
v -0.500000 1.309017 -0.809017
v 0.500000 -1.309017 0.809017
v 0.500000 1.309017 0.809017
v 0.500000 -1.309017 -0.809017
v 0.500000 1.309017 -0.809017
vn -1.0000 -0.0000 -0.0000
vn -0.0000 -0.0000 -1.0000
vn 1.0000 -0.0000 -0.0000
vn -0.0000 -0.0000 1.0000
vn -0.0000 -1.0000 -0.0000
vn -0.0000 1.0000 -0.0000
vt 0.375000 0.000000
vt 0.625000 0.000000
vt 0.625000 0.250000
vt 0.375000 0.250000
vt 0.625000 0.500000
vt 0.375000 0.500000
vt 0.625000 0.750000
vt 0.375000 0.750000
vt 0.625000 1.000000
vt 0.375000 1.000000
vt 0.125000 0.500000
vt 0.125000 0.750000
vt 0.875000 0.500000
vt 0.875000 0.750000
s 0
usemtl GoldenLife
f 1/1/1 2/2/1 4/3/1 3/4/1
f 3/4/2 4/3/2 8/5/2 7/6/2
f 7/6/3 8/5/3 6/7/3 5/8/3
f 5/8/4 6/7/4 2/9/4 1/10/4
f 3/11/5 7/6/5 5/8/5 1/12/5
f 8/5/6 4/13/6 2/14/6 6/7/6
o FluidFlow
v -5.000000 -5.000000 5.000000
v 5.000000 -5.000000 5.000000
v -5.000000 -5.000000 -5.000000
v 5.000000 -5.000000 -5.000000
v -5.000000 -5.092181 -3.333333
v -5.000000 -4.967523 -1.666667
v -5.000000 -5.000000 0.000000
v -5.000000 -5.097889 1.666667
v -5.000000 -5.003585 3.333333
v -3.333333 -5.090104 5.000000
v -1.666667 -5.031209 5.000000
v 0.000000 -5.000000 5.000000
v 1.666667 -5.000595 5.000000
v 3.333333 -4.999649 5.000000
v 5.000000 -4.949335 3.333333
v 5.000000 -4.943351 1.666667
v 5.000000 -5.000000 0.000000
v 5.000000 -4.954217 -1.666667
v 5.000000 -5.032500 -3.333333
v 3.333333 -4.905756 -5.000000
v 1.666667 -5.039771 -5.000000
v 0.000000 -5.000000 -5.000000
v -1.666667 -4.981081 -5.000000
v -3.333333 -5.050538 -5.000000
v -3.333333 -4.942259 3.333333
v -3.333333 -5.073610 1.666667
v -3.333333 -4.992016 0.000000
v -3.333333 -4.945797 -1.666667
v -3.333333 -4.954820 -3.333333
v -1.666667 -5.033643 3.333333
v -1.666667 -4.819207 1.666667
v -1.666667 -4.994558 0.000000
v -1.666667 -5.125584 -1.666667
v -1.666667 -5.033930 -3.333333
v 0.000000 -4.968449 3.333333
v 0.000000 -5.076987 1.666667
v 0.000000 -5.000000 0.000000
v 0.000000 -5.109664 -1.666667
v 0.000000 -4.986406 -3.333333
v 1.666667 -5.065046 3.333333
v 1.666667 -5.011394 1.666667
v 1.666667 -4.967237 0.000000
v 1.666667 -5.055828 -1.666667
v 1.666667 -5.060855 -3.333333
v 3.333333 -5.011831 3.333333
v 3.333333 -5.009974 1.666667
v 3.333333 -4.881615 0.000000
v 3.333333 -4.997930 -1.666667
v 3.333333 -5.038548 -3.333333
vn 0.0264 0.9984 0.0495
vn -0.0260 0.9997 -0.0011
vn 0.0029 0.9999 -0.0129
vn -0.0086 0.9999 0.0118
vn 0.0342 0.9994 0.0022
vn -0.0468 0.9978 0.0461
vn 0.0086 0.9990 0.0432
vn -0.0256 0.9974 -0.0675
vn -0.0097 0.9985 0.0538
vn -0.0089 0.9997 0.0236
vn -0.0476 0.9981 -0.0400
vn 0.0097 0.9990 0.0436
vn -0.0488 0.9985 0.0249
vn -0.0753 0.9968 -0.0280
vn 0.0546 0.9982 -0.0254
vn 0.0774 0.9967 0.0247
vn -0.0289 0.9995 0.0087
vn 0.0577 0.9978 0.0317
vn 0.0787 0.9965 -0.0294
vn -0.0031 0.9974 -0.0720
vn -0.0190 0.9977 0.0643
vn 0.0291 0.9995 -0.0099
vn 0.0093 0.9998 -0.0165
vn -0.0295 0.9989 0.0363
vn -0.0259 0.9979 -0.0594
vn 0.0062 0.9994 0.0354
vn -0.0162 0.9996 -0.0230
vn -0.0164 0.9997 0.0166
vn -0.0261 0.9983 0.0517
vn -0.0429 0.9972 -0.0613
vn -0.0241 0.9996 -0.0137
vn -0.0186 0.9998 0.0115
vn -0.0387 0.9992 0.0024
vn 0.0155 0.9996 0.0215
vn 0.0224 0.9995 -0.0211
vn -0.0149 0.9993 -0.0356
vt 0.833333 0.833333
vt 1.000000 0.833333
vt 1.000000 1.000000
vt 0.833333 1.000000
vt 0.000000 0.833333
vt 0.166667 0.833333
vt 0.166667 1.000000
vt 0.000000 1.000000
vt 0.333333 0.833333
vt 0.333333 1.000000
vt 0.500000 0.833333
vt 0.500000 1.000000
vt 0.666667 0.833333
vt 0.666667 1.000000
vt 0.000000 0.000000
vt 0.166667 0.000000
vt 0.166667 0.166667
vt 0.000000 0.166667
vt 0.166667 0.333333
vt 0.000000 0.333333
vt 0.166667 0.500000
vt 0.000000 0.500000
vt 0.166667 0.666667
vt 0.000000 0.666667
vt 0.333333 0.000000
vt 0.333333 0.166667
vt 0.333333 0.333333
vt 0.333333 0.500000
vt 0.333333 0.666667
vt 0.500000 0.000000
vt 0.500000 0.166667
vt 0.500000 0.333333
vt 0.500000 0.500000
vt 0.500000 0.666667
vt 0.666667 0.000000
vt 0.666667 0.166667
vt 0.666667 0.333333
vt 0.666667 0.500000
vt 0.666667 0.666667
vt 0.833333 0.000000
vt 0.833333 0.166667
vt 0.833333 0.333333
vt 0.833333 0.500000
vt 0.833333 0.666667
vt 1.000000 0.000000
vt 1.000000 0.166667
vt 1.000000 0.333333
vt 1.000000 0.500000
vt 1.000000 0.666667
s 0
usemtl ChaoticFlow
f 57/15/7 27/16/7 12/17/7 28/18/7
f 13/19/8 37/20/8 32/21/8 11/22/8
f 37/20/9 42/23/9 31/24/9 32/21/9
f 42/23/10 47/25/10 30/26/10 31/24/10
f 47/25/11 52/27/11 29/28/11 30/26/11
f 52/27/12 57/15/12 28/18/12 29/28/12
f 9/29/13 18/30/13 33/31/13 17/32/13
f 17/32/14 33/31/14 34/33/14 16/34/14
f 16/34/15 34/33/15 35/35/15 15/36/15
f 15/36/16 35/35/16 36/37/16 14/38/16
f 14/38/17 36/37/17 37/20/17 13/19/17
f 18/30/18 19/39/18 38/40/18 33/31/18
f 33/31/19 38/40/19 39/41/19 34/33/19
f 34/33/20 39/41/20 40/42/20 35/35/20
f 35/35/21 40/42/21 41/43/21 36/37/21
f 36/37/22 41/43/22 42/23/22 37/20/22
f 19/39/23 20/44/23 43/45/23 38/40/23
f 38/40/24 43/45/24 44/46/24 39/41/24
f 39/41/25 44/46/25 45/47/25 40/42/25
f 40/42/26 45/47/26 46/48/26 41/43/26
f 41/43/27 46/48/27 47/25/27 42/23/27
f 20/44/28 21/49/28 48/50/28 43/45/28
f 43/45/29 48/50/29 49/51/29 44/46/29
f 44/46/30 49/51/30 50/52/30 45/47/30
f 45/47/31 50/52/31 51/53/31 46/48/31
f 46/48/32 51/53/32 52/27/32 47/25/32
f 21/49/33 22/54/33 53/55/33 48/50/33
f 48/50/34 53/55/34 54/56/34 49/51/34
f 49/51/35 54/56/35 55/57/35 50/52/35
f 50/52/36 55/57/36 56/58/36 51/53/36
f 51/53/37 56/58/37 57/15/37 52/27/37
f 22/54/38 10/59/38 23/60/38 53/55/38
f 53/55/39 23/60/39 24/61/39 54/56/39
f 54/56/40 24/61/40 25/62/40 55/57/40
f 55/57/41 25/62/41 26/63/41 56/58/41
f 56/58/42 26/63/42 27/16/42 57/15/42
o Music_Wave_0
v -4.000000 0.000000 0.000000
v -3.874711 0.000000 -0.105035
v -3.747685 0.000000 -0.173611
v -3.617188 0.000000 -0.210937
v -3.481482 0.000000 -0.222222
v -3.338831 0.000000 -0.212674
v -3.187500 0.000000 -0.187500
v -3.025752 0.000000 -0.151910
v -2.851852 0.000000 -0.111111
v -2.664062 0.000000 -0.070312
v -2.460648 0.000000 -0.034722
v -2.239873 0.000000 -0.009549
v -2.000000 0.000000 0.000000
l 58 59
l 59 60
l 60 61
l 61 62
l 62 63
l 63 64
l 64 65
l 65 66
l 66 67
l 67 68
l 68 69
l 69 70
o Music_Wave_1
v -2.000000 1.997769 0.000000
v -1.874711 1.997769 -0.105035
v -1.747685 1.997769 -0.173611
v -1.617188 1.997769 -0.210937
v -1.481482 1.997769 -0.222222
v -1.338831 1.997769 -0.212674
v -1.187500 1.997769 -0.187500
v -1.025752 1.997769 -0.151910
v -0.851852 1.997769 -0.111111
v -0.664063 1.997769 -0.070312
v -0.460648 1.997769 -0.034722
v -0.239873 1.997769 -0.009549
v 0.000000 1.997769 0.000000
l 71 72
l 72 73
l 73 74
l 74 75
l 75 76
l 76 77
l 77 78
l 78 79
l 79 80
l 80 81
l 81 82
l 82 83
o Music_Wave_2
v 0.000000 -0.188670 0.000000
v 0.125289 -0.188670 -0.105035
v 0.252315 -0.188670 -0.173611
v 0.382812 -0.188670 -0.210937
v 0.518519 -0.188670 -0.222222
v 0.661169 -0.188670 -0.212674
v 0.812500 -0.188670 -0.187500
v 0.974248 -0.188670 -0.151910
v 1.148148 -0.188670 -0.111111
v 1.335938 -0.188670 -0.070312
v 1.539352 -0.188670 -0.034722
v 1.760127 -0.188670 -0.009549
v 2.000000 -0.188670 0.000000
l 84 85
l 85 86
l 86 87
l 87 88
l 88 89
l 89 90
l 90 91
l 91 92
l 92 93
l 93 94
l 94 95
l 95 96
o Music_Wave_3
v 2.000000 -1.979951 0.000000
v 2.125289 -1.979951 -0.105035
v 2.252315 -1.979951 -0.173611
v 2.382812 -1.979951 -0.210937
v 2.518518 -1.979951 -0.222222
v 2.661169 -1.979951 -0.212674
v 2.812500 -1.979951 -0.187500
v 2.974248 -1.979951 -0.151910
v 3.148148 -1.979951 -0.111111
v 3.335938 -1.979951 -0.070312
v 3.539352 -1.979951 -0.034722
v 3.760127 -1.979951 -0.009549
v 4.000000 -1.979951 0.000000
l 97 98
l 98 99
l 99 100
l 100 101
l 101 102
l 102 103
l 103 104
l 104 105
l 105 106
l 106 107
l 107 108
l 108 109
